# xmcd CD database file
#
# Track frame offsets:
#	150
#	16180
#	32905
#	51057
#	81992
#	101487
#	120882
#	143987
#	160380
#
# Disc length: 2535 seconds
#
# Revision: 3
# Processed by: cddbd v1.5.1PL0 Copyright (c) Steve Scherf et al.
# Submitted via: CDex 1.51
#
DISCID=6b09e509
DTITLE=Kabach - Pied Piper
DYEAR=1990
DGENRE=Rock
TTITLE0=Pied Piper
TTITLE1=Rubbers
TTITLE2=New Song
TTITLE3=Dream In Dream
TTITLE4=水晶の瞳を持つ少年
TTITLE5=Venus
TTITLE6=God Only Knows
TTITLE7=Changeling
TTITLE8=Long and Wide Way
EXTD=YEAR: 1990
EXTT0=
EXTT1=
EXTT2=
EXTT3=
EXTT4=
EXTT5=
EXTT6=
EXTT7=
EXTT8=
PLAYORDER=
